<?xml version="1.0" encoding="UTF-8"?>
<svg id="Capa_2" data-name="Capa 2" xmlns="http://www.w3.org/2000/svg" xmlns:xlink="http://www.w3.org/1999/xlink" viewBox="0 0 141.2 90.72">
  <defs>
    <style>
      .cls-1 {
        fill: url(#Degradado_sin_nombre_7);
      }
    </style>
    <linearGradient id="Degradado_sin_nombre_7" data-name="Degradado sin nombre 7" x1="69.45" y1="-.35" x2="70.9" y2="91.99" gradientUnits="userSpaceOnUse">
      <stop offset="0" stop-color="#e8c887"/>
      <stop offset="1" stop-color="#a77726"/>
    </linearGradient>
  </defs>
  <g id="Capa_1-2" data-name="Capa 1">
    <path class="cls-1" d="m14.89,75.16H0v-.23c.76-.12,1.57-.39,1.98-.88.3-.37.39-1.5.41-2.49.02-.85.05-2.9.05-4.77v-4.49c0-1.11-.02-2.44-.39-2.84-.46-.48-1.01-.55-1.84-.67v-.23h13.51l1.57,4.03-.23.12c-1.24-1.54-2.67-2.83-3.73-3.37-.39-.21-1.68-.46-3.69-.46-.65,0-1.34.05-1.64.12-.05.48-.12,2.17-.12,4.19,0,2.33.02,3.13.02,3.3.28,0,1.64,0,2.44-.18,1.87-.44,2.54-1.77,2.9-3.5h.28v7.91h-.28c-.25-.97-1.04-2.51-1.59-3.02-.48-.44-1.18-.74-2.1-.78s-.67-.05-1.64-.05c-.05.41-.05,1.34-.05,2.24,0,.83,0,2.14.02,2.74.02.99.07,1.96.35,2.37.28.42,1.45.6,2.58.6.51,0,1.29-.05,1.94-.14,1.91-.25,3.5-1.59,5.02-4.22l.25.07-1.15,4.63Zm14.52,0v-.25c1.31-.07,2.35-.62,2.65-1.27.18-.39.28-1.04.3-1.66.05-2.03.05-3.5.05-5.76v-5.6c-1.8,4.01-2.97,6.71-4.89,10.9-.28.62-1.22,2.9-1.36,3.25h-.6c-2.6-6.2-5.28-12.33-6.11-14.25-.02,3.71-.05,5.58-.05,9.89,0,2.88.23,4.17,2.9,4.52v.23h-6.2v-.23c2.12-.42,2.72-1.57,2.81-4.7.05-1.31.09-3.18.09-5.23,0-1.75.02-2.26-.02-4.03-.05-1.73-1.61-2.05-2.37-2.17v-.23h5.72l5.14,11.99c2.56-5.65,5.09-11.52,5.3-11.99h5.51v.23c-1.24.02-1.96.6-2.21,1.27-.18.51-.23,1.8-.25,2.86-.02,1.48-.02,2.84-.02,4.24,0,1.64,0,3.27.02,5.07,0,.58.07,1.24.25,1.59.07.14.85,1.06,2.35,1.11v.23h-9.01Zm21.23-7.47c-1.8.62-4.31.58-5.44.58,0,1.98,0,2.56.02,3.57.02.99,0,1.68.3,2.14.25.39,1.04.9,2.28.95v.23h-8.48v-.23c.71-.09,1.61-.3,2.03-.83.32-.39.35-1.54.37-2.54.02-.85.05-2.9.05-4.77v-4.49c0-1.11-.02-2.4-.39-2.79-.46-.48-1.31-.6-2.14-.71v-.23c.58,0,5.51-.05,7.24-.05,2.07,0,3.69.12,5.12.88,1.41.74,2.42,2.12,2.42,3.96,0,2.26-1.61,3.73-3.37,4.33Zm-2.17-8.37c-.62-.35-1.34-.44-2.07-.44-.55,0-.81.07-.99.09-.09.44-.14.6-.18,1.75-.05,2.14-.02,6.73-.02,7.19,1.06,0,1.98-.05,2.79-.37,1.66-.67,2.44-2.37,2.44-4.31,0-1.77-.69-3.23-1.96-3.92Zm21.09,15.84h-14.89v-.23c.76-.12,1.57-.39,1.98-.88.3-.37.39-1.5.41-2.49.02-.85.05-2.9.05-4.77v-4.49c0-1.11-.02-2.44-.39-2.84-.46-.48-1.01-.55-1.84-.67v-.23h13.51l1.57,4.03-.23.12c-1.24-1.54-2.67-2.83-3.73-3.37-.39-.21-1.68-.46-3.69-.46-.65,0-1.34.05-1.64.12-.05.48-.12,2.17-.12,4.19,0,2.33.02,3.13.02,3.3.28,0,1.64,0,2.44-.18,1.87-.44,2.54-1.77,2.9-3.5h.28v7.91h-.28c-.25-.97-1.04-2.51-1.59-3.02-.48-.44-1.18-.74-2.1-.78s-.67-.05-1.64-.05c-.05.41-.05,1.34-.05,2.24,0,.83,0,2.14.02,2.74.02.99.07,1.96.35,2.37.28.42,1.45.6,2.58.6.51,0,1.29-.05,1.94-.14,1.91-.25,3.5-1.59,5.02-4.22l.25.07-1.15,4.63Zm14.34,0c-.53-.55-.37-.32-1.34-1.75-1.15-1.71-1.61-2.65-3.09-4.36-.6-.69-1.36-1.5-2.17-1.66-.09-.02-.16-.02-.28-.05,0,1.98,0,3.46.02,4.47.02.99,0,1.68.3,2.14.25.39,1.04.92,2.28.97v.23h-8.48v-.23c.76-.12,1.64-.35,2.03-.83.32-.39.35-1.54.37-2.54.02-.85.05-2.9.05-4.77v-4.49c0-1.11-.02-2.4-.39-2.79-.46-.48-1.08-.6-1.91-.71v-.23c.48,0,5.58-.02,7.24-.02,2.05,0,3.67.05,4.98.71,1.36.69,2.33,1.84,2.33,3.69,0,2.26-1.75,3.64-3.85,4.29v.05c.46.25,1.06.92,1.52,1.57.81,1.15,1.8,2.63,2.54,3.66,1.13,1.61,2.1,2.21,3.55,2.42v.23h-5.69Zm-3.6-15.77c-.62-.35-1.31-.48-2.05-.48-.55,0-.9.05-1.06.07-.07.37-.09.37-.12,1.75-.07,2.14-.05,5.83-.05,6.32,1.06,0,1.82-.02,2.86-.41,1.66-.62,2.28-2.12,2.28-3.78,0-1.52-.62-2.77-1.87-3.46Zm17.38,15.93c-4.79,0-8.83-3.53-8.83-8.48,0-5.3,4.2-8.51,9.13-8.51,5.39,0,8.62,3.99,8.62,8.41,0,4.91-4.08,8.57-8.92,8.57Zm.02-16.6c-3.55,0-5.05,4.22-5.05,8.18,0,4.17,1.66,8.02,5.12,8.02s5.02-4.31,5.02-8.16-1.64-8.04-5.09-8.04Zm22.57,16.43c-.53-.55-.37-.32-1.34-1.75-1.15-1.71-1.61-2.65-3.09-4.36-.6-.69-1.36-1.5-2.17-1.66-.09-.02-.16-.02-.28-.05,0,1.98,0,3.46.02,4.47.02.99,0,1.68.3,2.14.25.39,1.04.92,2.28.97v.23h-8.48v-.23c.76-.12,1.64-.35,2.03-.83.32-.39.35-1.54.37-2.54.02-.85.05-2.9.05-4.77v-4.49c0-1.11-.02-2.4-.39-2.79-.46-.48-1.08-.6-1.91-.71v-.23c.48,0,5.58-.02,7.24-.02,2.05,0,3.66.05,4.98.71,1.36.69,2.33,1.84,2.33,3.69,0,2.26-1.75,3.64-3.85,4.29v.05c.46.25,1.06.92,1.52,1.57.81,1.15,1.8,2.63,2.54,3.66,1.13,1.61,2.1,2.21,3.55,2.42v.23h-5.69Zm-3.6-15.77c-.62-.35-1.31-.48-2.05-.48-.55,0-.9.05-1.06.07-.07.37-.09.37-.12,1.75-.07,2.14-.05,5.83-.05,6.32,1.06,0,1.82-.02,2.86-.41,1.66-.62,2.28-2.12,2.28-3.78,0-1.52-.62-2.77-1.87-3.46Zm7.56,4.4v-.23c1.22-.21,2.14-1.11,2.14-2.14,0-.16-.05-.37-.09-.48-.28.3-.71.37-.88.37-.85,0-1.29-.71-1.29-1.38,0-1.01.81-1.59,1.73-1.59,1.27,0,1.87,1.04,1.87,2.28,0,1.75-1.34,3.18-3.48,3.18Zm10.49,11.57c-3.09,0-4.7-1.11-4.86-1.11-.09,0-.46.53-.71.88h-.21l-.07-5.21h.23c.58,1.64,2.1,3.6,3.18,4.31.48.32,1.41.76,2.28.76,2.1,0,3.5-1.24,3.5-3.32,0-1.57-1.18-2.31-2.67-2.84-.97-.35-2.12-.71-3.32-1.2-1.84-.76-3.09-2.24-3.09-4.33,0-3.34,3.07-5,5.99-5s4.22,1.22,4.43,1.22c.09,0,.46-.58.69-.95h.25v4.89h-.25c-.76-2.1-2.72-4.79-4.86-4.79-1.87,0-3.27,1.38-3.27,3.07,0,1.52,1.24,2.37,2.67,2.93.85.35,1.96.74,3.02,1.15,2.28.88,3.55,2.19,3.55,4.54,0,3.13-2.97,5-6.48,5Zm-121.31,15.17v-6.95h3.76c.9,0,1.51.24,1.95.7.35.38.53.85.53,1.34,0,.57-.23,1.07-.62,1.44-.41.4-1,.64-1.86.64h-2.83v2.83h-.93Zm.93-6.13v2.48h2.83c.39,0,.83-.05,1.19-.39.23-.22.37-.53.37-.85s-.12-.57-.33-.81c-.33-.35-.78-.43-1.23-.43h-2.83Zm7.67,6.13v-6.95h3.83c.89,0,1.51.24,1.95.7.34.36.53.83.53,1.36,0,.94-.64,1.67-1.62,1.94l1.71,2.95h-1.05l-1.6-2.83h-2.83v2.83h-.93Zm.93-6.13v2.48h3.14c.77,0,1.33-.56,1.33-1.24,0-.31-.13-.6-.33-.81-.34-.34-.76-.43-1.23-.43h-2.9Zm8.11,6.13v-6.95h.93v6.95h-.93Zm10.51-6.95l-3.23,6.95h-.86l-3.23-6.95h1.04l2.62,5.79h.06l2.61-5.79h1Zm.74,6.95l3.22-6.95h.87l3.22,6.95h-1.01l-.95-2.09h-3.47l-.94,2.09h-.96Zm2.22-2.83h2.81l-1.37-3.03h-.06l-1.37,3.03Zm5.83-4.12h6.32v.82h-2.69v6.13h-.93v-6.13h-2.7v-.82Zm12.31,3.7h-2.81v2.43h4.9v.82h-5.83v-6.95h5.59v.82h-4.66v2.06h2.81v.82Zm7.56,3.24v-6.95h3.83c.89,0,1.51.24,1.95.7.34.36.53.83.53,1.36,0,.94-.64,1.67-1.62,1.94l1.71,2.95h-1.05l-1.6-2.83h-2.83v2.83h-.93Zm.93-6.13v2.48h3.14c.77,0,1.33-.56,1.33-1.24,0-.31-.13-.6-.33-.81-.34-.34-.75-.43-1.23-.43h-2.9Zm11.84,2.88h-2.81v2.43h4.91v.82h-5.83v-6.95h5.59v.82h-4.66v2.06h2.81v.82Zm9.48-2.23c-.42-.37-1.3-.86-2.57-.86-.89,0-1.81.32-1.81,1.19s1.15.94,2.28,1c1.21.09,3.17.2,3.17,2.06,0,1.62-1.44,2.27-3.11,2.27-1.77,0-2.89-.73-3.65-1.43l.56-.64c.59.54,1.55,1.28,3.11,1.28,1.18,0,2.16-.43,2.16-1.36,0-1.04-1.06-1.2-2.25-1.29-1.5-.1-3.2-.2-3.2-1.81s1.52-2.06,2.77-2.06c1.44,0,2.56.57,3.1,1.01l-.55.64Zm7.31,2.23h-2.81v2.43h4.9v.82h-5.83v-6.95h5.59v.82h-4.66v2.06h2.81v.82Zm4.53,3.24v-6.95h3.83c.89,0,1.51.24,1.95.7.34.36.53.83.53,1.36,0,.94-.64,1.67-1.62,1.94l1.71,2.95h-1.05l-1.6-2.83h-2.83v2.83h-.93Zm.93-6.13v2.48h3.14c.77,0,1.33-.56,1.33-1.24,0-.31-.13-.6-.33-.81-.34-.34-.75-.43-1.23-.43h-2.9Zm14.48-.82l-3.23,6.95h-.86l-3.23-6.95h1.04l2.62,5.79h.06l2.61-5.79h1Zm5.99,3.7h-2.81v2.43h4.9v.82h-5.83v-6.95h5.59v.82h-4.66v2.06h2.81v.82Zm-61.68-38.86h.61c.05-.12.11-.24.17-.36-.29,0-.54-.01-.73-.03-.04.24-.05.39-.05.39Zm-14.71-3.14l3.12-.19-2.79-2.13c-.49-.37-1.06-.57-1.66-.57h-5.38s5.38,2.62,5.38,2.62c.42.2.87.29,1.33.27Zm3.62-16.53l3.46,1.8s-2.29-3.81-2.8-4.11l-4.98-3.71,3.27,5.16c.28.36.64.66,1.04.87Zm5.69-7.61l3.22,4.46-.61-5.89c-.15-1.4-.7-2.74-1.59-3.83l-3.95-4.87,1.75,7.52c.22.94.62,1.83,1.19,2.61Zm11.98,15.33h0c.29.05.58.11.85.18.6-8.55,1.42-18.63,2.56-22.59-.1-.82-.81-9.15-3.42-14.08h0s0,0,0,0c-2.61,4.92-3.32,13.26-3.42,14.08,1.14,3.96,1.96,14.04,2.56,22.59.28-.06.56-.12.85-.18Zm-4.19,1.4c.65-.35,1.38-.66,2.19-.91-.43-4.52-.94-9.04-1.42-10.94-2.22-8.8-5.35-18.34-5.35-18.34,0,0,1.06,17.92,2.07,21.54l2.51,8.66Zm-2.99,2.4c.55-.65,1.21-1.26,2.02-1.81-.89-2.77-2.06-6.41-2.82-8.74-.5-1.53-1.42-2.89-2.66-3.91l-6.51-5.38s3.94,10.13,5.56,12.87l4.41,6.96Zm-5.86-6.69c-.89-1.15-2.12-1.99-3.57-2.43l-7.61-2.28s6.48,7.37,8.75,9.17l6.46,5.43c.27-.75.63-1.53,1.13-2.28-2.1-3.2-4.31-6.5-5.16-7.61Zm-4.21,5.31l-8.8-4.51,4.82,5.72c1.87,2.22,4.3,3.9,7.04,4.87l4.51,1.59c.05-.56.14-1.2.31-1.9l-5.32-4.13c-.8-.62-1.66-1.17-2.57-1.63Zm2.97,7.89c-2.94-.65-6-.48-8.84.5l-1.65.57,15.07.42c0-.11-.02-.27-.02-.48l-4.56-1.01Zm14.27-2c-4.01.67-5.48,3.64-5.48,3.64h1.55c1.19-1.47,3.93-1.27,3.93-1.27,0,0,2.74-.2,3.93,1.27h1.55s-1.47-2.97-5.48-3.64Zm7.44,3.09l.24-.03c.26-.04.53-.1.78-.18,0-.17-.01-.37-.03-.59-.33.04-.66.06-.99.06.22-.05.44-.09.65-.16.11-.03.22-.07.32-.11-.02-.24-.05-.49-.09-.76-.41.11-.85.18-1.29.21.24-.07.48-.13.71-.23.18-.07.36-.16.53-.25-.04-.25-.1-.51-.17-.78-.4.14-.82.24-1.25.31.41-.13.78-.29,1.12-.49.02-.02.05-.03.07-.05-.1-.36-.22-.74-.37-1.12-.23.11-.47.21-.72.29-.07.02-.28.08-.35.11-.08.02-.28.07-.36.09.07-.03.25-.1.33-.13.06-.03.24-.12.31-.15.25-.13.48-.28.7-.44-.17-.4-.37-.8-.61-1.2-.03.02-.05.04-.08.05-.5.35-1.07.65-1.7.87.63-.34,1.15-.77,1.58-1.24-.23-.35-.48-.7-.78-1.03-.07.09-.15.18-.22.26-.4.44-.87.86-1.44,1.19.61-.53,1.04-1.15,1.34-1.81-.25-.26-.53-.52-.84-.76-.09.18-.19.35-.29.52-.33.53-.74,1.04-1.27,1.48.6-.71.94-1.52,1.12-2.34-.29-.21-.61-.41-.95-.59-.22.87-.57,1.74-1.26,2.48.18-.28.32-.57.42-.86.2-.62.28-1.26.28-1.9-.33-.15-.67-.3-1.04-.42,0,0,0,.01,0,.02-.04,1.02-.2,2.06-.74,3.01.12-.33.19-.66.23-.99.08-.75.02-1.5-.12-2.24-.39-.11-.8-.22-1.23-.3-.43.09-.84.19-1.23.3-.15.74-.2,1.49-.12,2.24.04.33.11.67.23.99-.54-.95-.7-1.99-.74-3.01,0,0,0-.01,0-.02-.37.13-.71.27-1.04.42,0,.64.08,1.28.28,1.9.1.29.24.58.42.86-.69-.74-1.04-1.61-1.26-2.48-.34.18-.66.38-.95.59.18.82.52,1.63,1.12,2.34-.53-.44-.94-.95-1.27-1.48-.1-.17-.2-.35-.29-.52-.3.24-.58.5-.84.76.3.65.73,1.28,1.34,1.81-.57-.33-1.04-.75-1.44-1.19-.08-.09-.15-.17-.22-.26-.29.33-.55.68-.78,1.03.43.47.95.9,1.58,1.24-.63-.21-1.2-.52-1.7-.87-.03-.02-.05-.04-.08-.05-.24.4-.44.8-.61,1.2.22.16.45.31.7.44.06.03.24.12.31.15.07.03.25.1.33.13-.08-.02-.28-.07-.36-.09-.07-.02-.28-.08-.35-.11-.25-.09-.49-.18-.72-.29-.15.38-.27.75-.37,1.12.02.02.05.03.07.05.34.2.71.36,1.12.49-.43-.06-.86-.17-1.25-.31-.07.27-.12.53-.17.78.17.09.35.17.53.25.23.09.47.16.71.23-.44-.03-.87-.1-1.29-.21-.04.27-.07.53-.09.76.11.04.21.08.32.11.21.07.43.11.65.16-.33,0-.67-.01-.99-.06-.02.22-.02.42-.03.59.25.08.52.14.78.18l.24.03-.24.04c-.26.03-.52.06-.78.06,0,.29.02.45.02.45h1.38c.97-6.25,7.07-6.28,7.07-6.28,0,0,6.09.03,7.07,6.28h1.38s.01-.16.02-.45c-.26,0-.52-.02-.78-.06l-.24-.04Zm-1.64.19c.06.12.12.23.17.36h.61s0-.14-.05-.39c-.19.02-.44.04-.73.03Zm.62-.54c-.2.03-.42.06-.66.08l.64-.17c-.04-.15-.1-.32-.17-.49-.23.06-.49.11-.79.15l.74-.26c-.06-.16-.14-.32-.23-.49-.2.06-.42.11-.66.16l.61-.26c-.12-.22-.25-.44-.41-.66-.21.07-.43.14-.67.2l.59-.3c-.17-.23-.37-.46-.59-.68-.25.13-.52.26-.83.36l.73-.46c-.2-.19-.42-.38-.67-.57-.21.19-.45.37-.73.53l.61-.62c-.22-.16-.47-.31-.73-.46-.18.25-.41.51-.71.73l.54-.82c-.25-.13-.52-.25-.8-.37-.12.31-.31.64-.59.91l.37-.99c-.27-.1-.56-.19-.86-.27-.03.39-.13.8-.35,1.17l.13-1.23c-.29-.07-.59-.14-.91-.19-.32.05-.62.12-.91.19l.13,1.23c-.22-.37-.32-.78-.35-1.17-.3.08-.59.17-.86.27l.37.99c-.28-.27-.47-.59-.59-.91-.29.11-.55.24-.8.37l.54.82c-.29-.22-.53-.48-.71-.73-.26.14-.5.3-.73.46l.61.62c-.28-.15-.53-.34-.73-.53-.25.18-.47.37-.67.57l.73.46c-.31-.1-.58-.23-.83-.36-.22.23-.42.46-.59.68l.59.3c-.24-.05-.46-.12-.67-.2-.16.22-.3.45-.41.66l.61.26c-.24-.04-.46-.1-.66-.16-.09.17-.16.33-.23.49l.74.26c-.3-.04-.56-.09-.79-.15-.07.17-.12.34-.17.49l.64.17c-.25-.02-.47-.04-.66-.08-.05.17-.08.32-.1.44l.72.09c1.83-3.59,5.8-3.8,5.8-3.8,0,0,3.97.21,5.8,3.8l.72-.09c-.02-.13-.06-.28-.1-.44Zm14.55-4.55l-2.79,2.13,3.12.19c.46.03.91-.06,1.33-.27l5.38-2.62h-5.38c-.59,0-1.17.19-1.66.57Zm-6.75-12.42l3.46-1.8c.41-.21.76-.51,1.04-.87l3.27-5.16-4.98,3.71c-.51.3-2.8,4.11-2.8,4.11Zm-1.04-12.02l1.75-7.52-3.95,4.87c-.89,1.1-1.44,2.43-1.59,3.83l-.61,5.89,3.22-4.46c.57-.78.97-1.67,1.19-2.61Zm-11.17,18.43c.81.26,1.54.56,2.19.91l2.51-8.66c1.01-3.61,2.07-21.54,2.07-21.54,0,0-3.13,9.54-5.35,18.34-.48,1.91-.99,6.43-1.42,10.94Zm5.98-7.24c-.76,2.34-1.93,5.97-2.82,8.74.8.55,1.47,1.16,2.02,1.81l4.41-6.96c1.62-2.75,5.56-12.87,5.56-12.87l-6.51,5.38c-1.24,1.02-2.16,2.38-2.66,3.91Zm16.23-.84l-7.61,2.28c-1.45.43-2.69,1.28-3.57,2.43-.85,1.11-3.06,4.41-5.16,7.61.5.75.86,1.53,1.13,2.28l6.46-5.43c2.28-1.8,8.75-9.17,8.75-9.17Zm-3,11.23l4.82-5.72-8.8,4.51c-.9.46-1.76,1.01-2.57,1.63l-5.32,4.13c.17.7.26,1.35.31,1.9l4.51-1.59c2.74-.97,5.17-2.65,7.04-4.87Zm-6.95,6.68l-4.56,1.01c0,.21-.01.37-.02.48l15.07-.42-1.65-.57c-2.84-.98-5.9-1.15-8.84-.5Z"/>
  </g>
</svg>